<!DOCTYPE svg PUBLIC "-//W3C//DTD SVG 1.1//EN" "http://www.w3.org/Graphics/SVG/1.1/DTD/svg11.dtd">

<!-- Uploaded to: SVG Repo, www.svgrepo.com, Transformed by: SVG Repo Mixer Tools -->
<svg width="800px" height="800px" viewBox="0 0 48 48" version="1" xmlns="http://www.w3.org/2000/svg" enable-background="new 0 0 48 48" fill="#29221d" stroke="#29221d">

<g id="SVGRepo_bgCarrier" stroke-width="0"/>

<g id="SVGRepo_tracerCarrier" stroke-linecap="round" stroke-linejoin="round"/>

<g id="SVGRepo_iconCarrier"> <polygon fill="#7f7a77" points="42,42 6,42 6,9 24,2 42,9"/> <rect x="6" y="42" fill="#7f7a77" width="36" height="2"/> <rect x="20" y="35" fill="#29221dfff" width="8" height="9"/> <g fill="#29221df"> <rect x="31" y="27" width="6" height="5"/> <rect x="21" y="27" width="6" height="5"/> <rect x="11" y="27" width="6" height="5"/> <rect x="31" y="35" width="6" height="5"/> <rect x="11" y="35" width="6" height="5"/> <rect x="31" y="19" width="6" height="5"/> <rect x="21" y="19" width="6" height="5"/> <rect x="11" y="19" width="6" height="5"/> <rect x="31" y="11" width="6" height="5"/> <rect x="21" y="11" width="6" height="5"/> <rect x="11" y="11" width="6" height="5"/> </g> </g>

</svg>